HIERARCHY
ROOT Hips
{
	OFFSET 0.000000 83.214638 0.000000
	CHANNELS 6 Xposition Yposition Zposition Xrotation Yrotation Zrotation
	JOINT Pelvis
	{
		OFFSET 0.000000 0.000000 0.000000
		CHANNELS 3 Xrotation Yrotation Zrotation
		JOINT LeftUpLeg
		{
			OFFSET 8.479700 -4.795502 -0.379100
			CHANNELS 3 Xrotation Yrotation Zrotation
			JOINT LeftLeg
			{
				OFFSET 0.024144 -32.555107 0.112900
				CHANNELS 3 Xrotation Yrotation Zrotation
				JOINT LeftFoot
				{
					OFFSET -0.024144 -32.638630 -3.012600
					CHANNELS 3 Xrotation Yrotation Zrotation
					JOINT LeftToeBase
					{
						OFFSET 0.970200 -13.225400 11.864200
						CHANNELS 3 Xrotation Yrotation Zrotation
						End Site
						{
							OFFSET 0.000000 12.319262 0.000000
						}
					}
					JOINT LFootTongue
					{
						OFFSET 1.142400 -1.059800 6.665200
						CHANNELS 3 Xrotation Yrotation Zrotation
						End Site
						{
							OFFSET 0.000000 12.319262 0.000000
						}
					}
				}
				JOINT LeftPantLeg
				{
					OFFSET 0.918482 -16.533964 -2.284700
					CHANNELS 3 Xrotation Yrotation Zrotation
					End Site
					{
						OFFSET 0.350399 24.744368 0.000000
					}
				}
			}
		}
		JOINT RightUpLeg
		{
			OFFSET -8.479700 -4.795502 -0.379100
			CHANNELS 3 Xrotation Yrotation Zrotation
			JOINT RightLeg
			{
				OFFSET -0.023144 -32.555092 0.112900
				CHANNELS 3 Xrotation Yrotation Zrotation
				JOINT RightFoot
				{
					OFFSET 0.023144 -32.638641 -3.012700
					CHANNELS 3 Xrotation Yrotation Zrotation
					JOINT RightToeBase
					{
						OFFSET -0.970200 -13.225400 11.864200
						CHANNELS 3 Xrotation Yrotation Zrotation
						End Site
						{
							OFFSET 0.000000 12.319244 0.000000
						}
					}
					JOINT RFootTongue
					{
						OFFSET -1.142200 -1.059800 6.665200
						CHANNELS 3 Xrotation Yrotation Zrotation
						End Site
						{
							OFFSET 0.000000 12.319243 0.000000
						}
					}
				}
				JOINT RightPantLeg
				{
					OFFSET -0.919482 -16.533978 -2.284800
					CHANNELS 3 Xrotation Yrotation Zrotation
					End Site
					{
						OFFSET -0.350400 24.744419 0.000000
					}
				}
			}
		}
	}
	JOINT Spine
	{
		OFFSET 0.000000 7.722000 1.166200
		CHANNELS 3 Xrotation Yrotation Zrotation
		JOINT Spine1
		{
			OFFSET 0.000000 12.024101 0.248800
			CHANNELS 3 Xrotation Yrotation Zrotation
			JOINT Spine2
			{
				OFFSET 0.000000 11.502998 -0.491200
				CHANNELS 3 Xrotation Yrotation Zrotation
				JOINT Neck
				{
					OFFSET 0.000000 18.430702 -3.123100
					CHANNELS 3 Xrotation Yrotation Zrotation
					JOINT Head
					{
						OFFSET 0.000000 9.051102 1.034000
						CHANNELS 3 Xrotation Yrotation Zrotation
						JOINT HairB
						{
							OFFSET 0.208400 24.786102 24.822300
							CHANNELS 3 Xrotation Yrotation Zrotation
							End Site
							{
								OFFSET 0.000000 32.263779 0.000000
							}
						}
						JOINT HairA
						{
							OFFSET -7.081100 24.428299 23.196600
							CHANNELS 3 Xrotation Yrotation Zrotation
							End Site
							{
								OFFSET 0.000000 32.263779 0.000000
							}
						}
						JOINT Hat
						{
							OFFSET 16.728800 15.048294 -15.439601
							CHANNELS 3 Xrotation Yrotation Zrotation
							End Site
							{
								OFFSET 0.000000 32.263779 0.000000
							}
						}
					}
				}
				JOINT LeftShoulder
				{
					OFFSET 6.197800 13.665199 -4.064700
					CHANNELS 3 Xrotation Yrotation Zrotation
					JOINT LeftArm
					{
						OFFSET 7.778100 -0.187103 -1.709300
						CHANNELS 3 Xrotation Yrotation Zrotation
						JOINT LeftForeArm
						{
							OFFSET 22.049376 0.000000 0.000000
							CHANNELS 3 Xrotation Yrotation Zrotation
							JOINT LeftHand
							{
								OFFSET 23.009392 0.000000 0.000000
								CHANNELS 3 Xrotation Yrotation Zrotation
								JOINT LeftHandThumb1
								{
									OFFSET 3.507191 -2.063065 3.133727
									CHANNELS 3 Xrotation Yrotation Zrotation
									JOINT LeftHandThumb2
									{
										OFFSET 3.101337 -1.790558 1.790558
										CHANNELS 3 Xrotation Yrotation Zrotation
										JOINT LeftHandThumb3
										{
											OFFSET 3.058640 -1.765907 1.765906
											CHANNELS 3 Xrotation Yrotation Zrotation
											End Site
											{
												OFFSET -0.415260 3.926476 -0.049563
											}
										}
									}
								}
								JOINT LeftHandIndex1
								{
									OFFSET 11.334419 -0.901459 3.706815
									CHANNELS 3 Xrotation Yrotation Zrotation
									JOINT LeftHandIndex2
									{
										OFFSET 3.283112 0.000000 0.000000
										CHANNELS 3 Xrotation Yrotation Zrotation
										JOINT LeftHandIndex3
										{
											OFFSET 3.323853 0.000000 0.000000
											CHANNELS 3 Xrotation Yrotation Zrotation
											End Site
											{
												OFFSET -1.135597 3.097809 0.402452
											}
										}
									}
								}
								JOINT LeftHandMiddle1
								{
									OFFSET 11.335861 0.000000 0.000000
									CHANNELS 3 Xrotation Yrotation Zrotation
									JOINT LeftHandMiddle2
									{
										OFFSET 3.410492 0.000000 0.000000
										CHANNELS 3 Xrotation Yrotation Zrotation
										JOINT LeftHandMiddle3
										{
											OFFSET 3.312172 0.000000 0.000000
											CHANNELS 3 Xrotation Yrotation Zrotation
											End Site
											{
												OFFSET -1.150200 3.080154 0.400270
											}
										}
									}
								}
								JOINT LeftHandRing1
								{
									OFFSET 11.514786 -0.013176 -3.003090
									CHANNELS 3 Xrotation Yrotation Zrotation
									JOINT LeftHandRing2
									{
										OFFSET 3.053307 0.000000 0.000000
										CHANNELS 3 Xrotation Yrotation Zrotation
										JOINT LeftHandRing3
										{
											OFFSET 3.295807 0.000000 0.000000
											CHANNELS 3 Xrotation Yrotation Zrotation
											End Site
											{
												OFFSET -1.281006 3.013344 0.375733
											}
										}
									}
								}
								JOINT LeftHandPinky1
								{
									OFFSET 10.518692 -0.960396 -5.730441
									CHANNELS 3 Xrotation Yrotation Zrotation
									JOINT LeftHandPinky2
									{
										OFFSET 2.861649 0.000000 0.000000
										CHANNELS 3 Xrotation Yrotation Zrotation
										JOINT LeftHandPinky3
										{
											OFFSET 2.863380 0.000000 0.000000
											CHANNELS 3 Xrotation Yrotation Zrotation
											End Site
											{
												OFFSET -0.843597 2.711159 0.369971
											}
										}
									}
								}
							}
							JOINT LSleeve
							{
								OFFSET 6.676277 -0.344902 -1.011730
								CHANNELS 3 Xrotation Yrotation Zrotation
								End Site
								{
									OFFSET 0.000000 14.885353 0.000000
								}
							}
						}
					}
				}
				JOINT RightShoulder
				{
					OFFSET -6.197800 13.665199 -4.064700
					CHANNELS 3 Xrotation Yrotation Zrotation
					JOINT RightArm
					{
						OFFSET -7.778100 -0.187103 -1.709300
						CHANNELS 3 Xrotation Yrotation Zrotation
						JOINT RightForeArm
						{
							OFFSET -22.049376 0.000000 0.000000
							CHANNELS 3 Xrotation Yrotation Zrotation
							JOINT RightHand
							{
								OFFSET -23.009392 0.000000 0.000000
								CHANNELS 3 Xrotation Yrotation Zrotation
								JOINT RightHandThumb1
								{
									OFFSET -3.507191 -2.063065 3.133727
									CHANNELS 3 Xrotation Yrotation Zrotation
									JOINT RightHandThumb2
									{
										OFFSET -3.101337 -1.790558 1.790558
										CHANNELS 3 Xrotation Yrotation Zrotation
										JOINT RightHandThumb3
										{
											OFFSET -3.058640 -1.765907 1.765906
											CHANNELS 3 Xrotation Yrotation Zrotation
											End Site
											{
												OFFSET 0.415260 3.926476 -0.049563
											}
										}
									}
								}
								JOINT RightHandIndex1
								{
									OFFSET -11.334419 -0.901459 3.706815
									CHANNELS 3 Xrotation Yrotation Zrotation
									JOINT RightHandIndex2
									{
										OFFSET -3.283112 0.000000 0.000000
										CHANNELS 3 Xrotation Yrotation Zrotation
										JOINT RightHandIndex3
										{
											OFFSET -3.323853 0.000000 0.000000
											CHANNELS 3 Xrotation Yrotation Zrotation
											End Site
											{
												OFFSET 1.135597 3.097809 0.402452
											}
										}
									}
								}
								JOINT RightHandMiddle1
								{
									OFFSET -11.335861 0.000000 0.000000
									CHANNELS 3 Xrotation Yrotation Zrotation
									JOINT RightHandMiddle2
									{
										OFFSET -3.410492 0.000000 0.000000
										CHANNELS 3 Xrotation Yrotation Zrotation
										JOINT RightHandMiddle3
										{
											OFFSET -3.312172 0.000000 0.000000
											CHANNELS 3 Xrotation Yrotation Zrotation
											End Site
											{
												OFFSET 1.150200 3.080154 0.400270
											}
										}
									}
								}
								JOINT RightHandRing1
								{
									OFFSET -11.514786 -0.013176 -3.003090
									CHANNELS 3 Xrotation Yrotation Zrotation
									JOINT RightHandRing2
									{
										OFFSET -3.053307 0.000000 0.000000
										CHANNELS 3 Xrotation Yrotation Zrotation
										JOINT RightHandRing3
										{
											OFFSET -3.295807 0.000000 0.000000
											CHANNELS 3 Xrotation Yrotation Zrotation
											End Site
											{
												OFFSET 1.281006 3.013344 0.375733
											}
										}
									}
								}
								JOINT RightHandPinky1
								{
									OFFSET -10.518692 -0.960396 -5.730441
									CHANNELS 3 Xrotation Yrotation Zrotation
									JOINT RightHandPinky2
									{
										OFFSET -2.861649 0.000000 0.000000
										CHANNELS 3 Xrotation Yrotation Zrotation
										JOINT RightHandPinky3
										{
											OFFSET -2.863380 0.000000 0.000000
											CHANNELS 3 Xrotation Yrotation Zrotation
											End Site
											{
												OFFSET 0.843597 2.711159 0.369971
											}
										}
									}
								}
							}
							JOINT RSleeve
							{
								OFFSET -6.676277 -0.344902 -1.011730
								CHANNELS 3 Xrotation Yrotation Zrotation
								End Site
								{
									OFFSET 0.000000 14.885353 0.000000
								}
							}
						}
					}
				}
				JOINT Backpack
				{
					OFFSET 0.000000 -2.471497 36.677502
					CHANNELS 3 Xrotation Yrotation Zrotation
					End Site
					{
						OFFSET 0.000000 20.427315 0.000000
					}
				}
				JOINT Hood
				{
					OFFSET 0.000000 18.754097 -10.431000
					CHANNELS 3 Xrotation Yrotation Zrotation
					JOINT Hood1
					{
						OFFSET 0.000000 -5.011002 -7.685901
						CHANNELS 3 Xrotation Yrotation Zrotation
						End Site
						{
							OFFSET 0.000000 9.175140 0.000000
						}
					}
				}
				JOINT LHoodieString
				{
					OFFSET 5.250500 16.397697 3.089900
					CHANNELS 3 Xrotation Yrotation Zrotation
					JOINT LHoodieString1
					{
						OFFSET 0.257700 -6.364304 3.694600
						CHANNELS 3 Xrotation Yrotation Zrotation
						JOINT LHoodieString2
						{
							OFFSET 0.000000 -9.643799 2.679100
							CHANNELS 3 Xrotation Yrotation Zrotation
							End Site
							{
								OFFSET 0.000000 10.009018 0.000000
							}
						}
					}
				}
				JOINT RHoodieString
				{
					OFFSET -5.250500 16.397697 3.089900
					CHANNELS 3 Xrotation Yrotation Zrotation
					JOINT RHoodieString1
					{
						OFFSET -0.257700 -6.364304 3.694600
						CHANNELS 3 Xrotation Yrotation Zrotation
						JOINT RHoodieString2
						{
							OFFSET 0.000000 -9.643799 2.679100
							CHANNELS 3 Xrotation Yrotation Zrotation
							End Site
							{
								OFFSET 0.000000 10.009018 0.000000
							}
						}
					}
				}
			}
			JOINT LBackpack_Strap
			{
				OFFSET 15.223200 -7.719803 -6.610900
				CHANNELS 3 Xrotation Yrotation Zrotation
				End Site
				{
					OFFSET 0.000000 16.040596 0.000000
				}
			}
			JOINT RBackpack_Strap
			{
				OFFSET -15.223000 -7.719803 -6.610900
				CHANNELS 3 Xrotation Yrotation Zrotation
				End Site
				{
					OFFSET 0.000000 16.040596 0.000000
				}
			}
		}
	}
	JOINT BoyFacialAnim_Joint
	{
		OFFSET 1.000000 -82.208099 -1.550900
		CHANNELS 3 Xrotation Yrotation Zrotation
		End Site
		{
			OFFSET 0.000000 30.012791 0.000000
		}
	}
}
MOTION
Frames: 4
Frame Time: 0.016667
-0.250039 70.702034 0.244973 11.695791 -49.489553 11.290269 -0.000000 0.000000 -0.000000 -64.578503 28.127834 42.220941 45.036123 -20.081157 3.175746 2.545453 0.952098 -10.119463 -0.000000 0.000000 -0.000000 -0.000000 0.000000 -0.000000 -0.000001 0.000001 -0.000000 -33.975475 -0.459102 -24.258160 53.259585 1.997535 -6.750452 -26.565350 -2.745300 24.293569 0.000000 -0.000000 -0.000000 0.000000 -0.000000 -0.000000 0.000001 -0.000000 -0.000005 10.973393 2.836622 -2.050337 6.100716 5.566505 -4.284672 -5.786924 6.328159 -3.046186 2.318706 9.363317 -0.265342 -4.146680 23.161950 -3.523374 -0.000000 -0.000000 -0.000000 -0.000000 -0.000000 -0.000000 -0.000000 -0.000000 -0.000000 -1.875346 -16.181698 -2.870491 -10.644666 2.164709 -45.510595 -22.862383 -25.786274 -15.871729 2.491042 -2.511842 6.860508 18.457968 -9.513790 13.216580 -1.150177 11.255326 -8.400807 -0.000002 -0.000005 0.000005 -1.232797 -5.771930 -0.192333 0.133958 -0.197656 -4.602114 -0.000004 -0.000000 -0.000004 1.884755 4.663353 -4.597417 0.476679 -1.009819 -12.986442 0.000001 0.000003 -0.000001 3.024658 7.938927 -14.103468 -0.708026 -0.566240 -18.895778 0.000002 0.000000 0.000001 2.010404 6.305933 -22.386560 -0.815362 -0.210782 -16.746488 0.000003 -0.000002 0.000005 -0.000002 -0.000000 -0.000001 -5.074600 24.343691 1.482627 6.642396 -34.733701 57.610501 -21.031981 44.833853 19.961655 -0.087304 35.608495 7.474331 55.149546 18.649540 -29.698267 -0.442521 -14.180589 7.313154 0.000001 -0.000002 0.000000 5.673405 7.585017 36.844158 1.050466 3.824518 68.900257 0.000000 0.000000 0.000004 -0.125692 1.886077 45.000773 -1.168985 3.204669 68.417650 -0.000003 0.000000 -0.000002 -5.311988 1.216639 58.508807 -0.745222 1.667580 48.011295 -0.000001 0.000000 0.000002 -7.756801 -9.376469 47.263987 -0.526012 1.541609 45.600511 -0.000006 -0.000001 0.000000 0.000001 0.000002 -0.000004 -0.000000 0.000001 0.000000 -0.000000 0.000001 0.000000 -0.000000 0.000001 0.000000 -0.000000 0.000001 0.000000 -0.000000 0.000001 0.000000 -0.000000 -0.000001 0.000000 -0.000000 0.000001 0.000000 -0.000000 0.000001 0.000000 -0.000000 -0.000001 0.000000 -0.000000 -0.000002 0.000000 -0.000000 -0.000002 0.000000 -0.000000 0.000000 -0.000000 
-0.238014 70.593124 0.466507 17.359045 -51.221880 16.031084 0.000000 0.000001 -0.000000 -66.355786 27.222095 42.061548 45.747764 -18.920077 3.347284 1.561621 3.064729 -11.273653 -0.000000 -0.000000 -0.000000 -0.000000 -0.000000 -0.000000 -0.000000 0.000001 0.000000 -37.968526 1.300173 -23.667871 53.264424 2.289413 -6.749394 -26.043202 -1.947625 24.371445 0.000000 -0.000003 -0.000000 0.000000 -0.000003 -0.000000 -0.000003 -0.000003 -0.000001 6.600079 3.218675 -1.425046 4.905270 6.087646 -4.052457 -6.993462 6.770103 -2.740918 -0.991441 3.774196 0.062746 -2.765973 16.503462 -2.144348 0.000000 0.000002 -0.000000 0.000000 0.000002 -0.000000 0.000000 0.000002 -0.000000 -2.019447 -12.678709 -1.080113 -6.222592 2.408196 -48.336064 -21.610054 -26.352750 -14.989769 2.965862 -1.783778 8.412966 18.064698 -9.416778 14.872083 -0.773601 11.739602 -8.473102 0.000001 0.000000 -0.000001 -1.184300 -5.275860 -1.333411 0.131700 -0.224503 -5.199124 0.000001 -0.000000 -0.000005 1.542725 3.201553 -5.955571 0.477913 -1.005704 -12.916749 0.000003 -0.000001 0.000002 2.085942 6.252216 -15.478206 -0.700610 -0.534743 -18.124363 0.000004 -0.000003 0.000003 1.342407 5.609879 -22.650033 -0.814043 -0.196019 -16.362353 -0.000002 -0.000002 -0.000004 -0.000003 -0.000001 0.000000 -5.292528 23.824658 2.533290 6.218713 -35.596111 55.188103 -22.397630 43.628219 20.943865 3.828312 34.139232 9.201647 55.149536 18.649536 -29.698270 -0.442519 -14.180584 7.313154 -0.000002 -0.000006 -0.000002 5.673405 7.585016 36.844158 1.050464 3.824521 68.900257 -0.000000 0.000002 0.000002 -0.125696 1.886081 45.000773 -1.168985 3.204663 68.417650 0.000002 -0.000001 0.000001 -5.311988 1.216641 58.508807 -0.745219 1.667584 48.011295 -0.000002 -0.000002 0.000004 -7.756800 -9.376466 47.263994 -0.526012 1.541605 45.600511 0.000001 -0.000001 0.000000 0.000002 -0.000003 0.000001 -0.000000 0.000004 -0.000000 -0.000000 0.000004 -0.000000 -0.000000 0.000004 -0.000000 -0.000000 0.000004 -0.000000 -0.000000 0.000004 -0.000001 -0.000000 0.000004 -0.000001 -0.000000 0.000004 -0.000000 -0.000000 0.000004 -0.000001 -0.000000 0.000004 -0.000001 0.000003 -0.000000 0.000000 0.000003 -0.000000 0.000000 0.000000 0.000001 -0.000000 
-0.436113 70.425514 0.945077 23.070620 -51.192906 21.266979 -0.000000 0.000001 -0.000001 -68.339553 26.803337 41.044075 46.519623 -18.218157 3.452238 0.545045 4.700960 -11.969341 -0.000000 -0.000000 -0.000000 -0.000000 -0.000000 0.000000 0.000000 0.000000 0.000000 -41.243769 3.120233 -23.708101 53.281223 2.048445 -6.794889 -26.000775 -2.103645 24.866484 0.000000 0.000002 0.000000 0.000000 0.000002 0.000000 -0.000002 -0.000000 -0.000002 1.926962 3.205969 -0.636499 3.783559 5.915587 -3.917739 -8.078009 6.563237 -2.613888 -5.256407 -4.314908 1.768455 -0.964761 7.189387 -0.581164 -0.000000 0.000000 -0.000000 -0.000000 0.000000 -0.000000 -0.000000 0.000000 -0.000000 -2.338699 -9.267091 0.477314 0.012346 1.464313 -49.562236 -21.267391 -30.655709 -14.789846 4.369179 -3.947301 9.995072 17.604348 -9.261259 16.773929 -0.387769 12.245211 -8.536500 0.000002 0.000000 0.000002 -1.103386 -4.719072 -2.651484 0.129733 -0.245651 -5.669181 0.000001 -0.000001 -0.000002 1.185349 1.599532 -7.313224 0.484441 -0.983398 -12.540485 0.000003 0.000003 0.000000 1.012836 4.393969 -16.937172 -0.690368 -0.487703 -16.975163 -0.000001 0.000003 -0.000005 0.513816 4.787119 -22.956983 -0.812377 -0.176156 -15.846273 0.000001 0.000002 -0.000003 0.000002 0.000001 0.000000 -5.306077 22.788496 3.827939 7.662541 -36.585690 53.035545 -27.334610 45.566521 26.031903 8.948045 30.429306 10.709127 55.149543 18.649538 -29.698274 -0.442524 -14.180583 7.313154 0.000001 -0.000002 0.000000 5.673405 7.585021 36.844158 1.050464 3.824519 68.900257 -0.000002 0.000001 0.000000 -0.125695 1.886080 45.000773 -1.168985 3.204665 68.417650 0.000001 0.000001 -0.000003 -5.311990 1.216644 58.508801 -0.745221 1.667581 48.011288 0.000001 -0.000000 0.000000 -7.756800 -9.376469 47.263994 -0.526012 1.541602 45.600515 -0.000000 -0.000000 -0.000003 0.000001 0.000003 -0.000005 0.000000 -0.000001 -0.000000 0.000000 -0.000001 -0.000000 0.000000 -0.000001 -0.000000 0.000000 -0.000001 -0.000000 0.000000 -0.000001 0.000001 -0.000000 -0.000001 0.000001 0.000000 -0.000001 -0.000000 0.000000 -0.000001 0.000001 -0.000000 -0.000001 0.000001 0.000001 -0.000000 -0.000000 0.000001 -0.000000 -0.000000 -0.000000 0.000001 -0.000001 
-0.840748 70.272560 1.534972 27.397876 -49.768556 25.584823 0.000000 0.000001 -0.000000 -70.003265 26.974070 39.459946 46.941670 -18.024377 3.467602 -0.275142 5.692844 -12.266019 -0.000000 -0.000000 -0.000000 -0.000000 -0.000000 0.000000 -0.000000 0.000002 -0.000000 -43.333326 4.716527 -24.368237 53.324045 1.454599 -6.841652 -26.400428 -2.989204 25.521601 0.000000 0.000000 -0.000000 0.000000 0.000000 -0.000000 -0.000000 -0.000000 -0.000000 -1.831145 2.756603 0.025489 3.102663 5.088902 -3.978473 -8.666747 5.787709 -2.761520 -8.158459 -13.179524 6.213845 0.797487 -2.094666 0.411622 0.000000 0.000001 0.000000 0.000000 0.000001 0.000000 0.000000 0.000001 0.000000 -2.777917 -7.561323 3.202644 6.336170 0.679706 -51.194286 -20.920412 -35.100902 -14.588096 5.409417 -8.008537 10.884746 17.109800 -9.079834 18.724409 0.002466 12.754337 -8.604142 -0.000001 -0.000000 0.000000 -0.983835 -4.156254 -4.002715 0.127635 -0.266919 -6.142124 -0.000001 0.000001 -0.000005 0.803372 -0.034199 -8.704985 0.492089 -0.956446 -12.087589 0.000001 -0.000000 -0.000002 -0.132068 2.515796 -18.482075 -0.680308 -0.436519 -15.731512 -0.000000 0.000004 -0.000005 -0.362790 3.941750 -23.293214 -0.810853 -0.154972 -15.297260 -0.000001 -0.000001 0.000001 0.000002 0.000000 -0.000001 -5.506172 20.977705 6.822258 8.426882 -38.300808 48.596383 -35.680082 50.798941 35.841196 12.703982 25.022436 12.320498 55.149546 18.649540 -29.698267 -0.442521 -14.180586 7.313154 -0.000001 -0.000001 -0.000002 5.673409 7.585020 36.844158 1.050463 3.824520 68.900257 -0.000002 -0.000001 0.000003 -0.125697 1.886086 45.000773 -1.168985 3.204671 68.417650 0.000001 0.000001 -0.000002 -5.311990 1.216646 58.508807 -0.745223 1.667580 48.011292 0.000002 0.000001 0.000001 -7.756801 -9.376467 47.263994 -0.526014 1.541601 45.600511 -0.000000 0.000001 -0.000005 0.000001 0.000001 -0.000001 0.000000 0.000002 -0.000000 0.000000 0.000002 -0.000000 0.000000 0.000002 -0.000000 0.000000 0.000002 -0.000000 0.000000 0.000002 -0.000000 0.000000 0.000002 -0.000000 0.000000 0.000002 -0.000000 0.000000 0.000002 -0.000000 0.000000 0.000002 -0.000000 -0.000000 -0.000000 -0.000001 -0.000000 -0.000000 -0.000001 0.000000 0.000001 -0.000000 
